Coordinates
version=1
nRows=37
nColumns=11
inDegrees=yes

Units are S.I. units (second, meters, Newtons, ...)
If the header above contains a line with 'inDegrees', this indicates whether rotational values are in degrees (yes) or radians (no).

endheader
time	pelvis_tilt	pelvis_tx	pelvis_ty	hip_flexion_l	hip_flexion_r	knee_angle_l	knee_angle_r	ankle_angle_l	ankle_angle_r	lumbar_extension
      3.27000000	      0.59291712	      0.29775880	      0.91036513	     35.70123802	     -1.35393461	    -32.99173857	    -23.80243136	     -3.40151167	      5.01382237	     -5.66871266
      3.28000000	      0.57913456	      0.30750154	      0.90911219	     35.79417272	     -1.88170240	    -30.65498145	    -24.07874866	     -3.48588952	      5.16313576	     -5.76232627
      3.29000000	      0.56694829	      0.31799926	      0.90785294	     35.77410628	     -2.54863607	    -28.33726927	    -24.20541958	     -3.53971419	      5.27966147	     -5.74365575
      3.30000000	      0.57533057	      0.32862512	      0.90653722	     35.69263476	     -3.23887747	    -26.15721927	    -24.29677340	     -3.60612351	      5.29827125	     -5.72536044
      3.31000000	      0.53556356	      0.33934725	      0.90517701	     35.60954187	     -3.93619494	    -24.08535274	    -24.31539873	     -3.80722930	      5.30941708	     -5.66489674
      3.32000000	      0.53554669	      0.35017782	      0.90386340	     35.47043217	     -4.80474586	    -22.26202207	    -24.10842671	     -3.95018118	      5.25314922	     -5.65305057
      3.33000000	      0.56507130	      0.36116526	      0.90262212	     35.28544179	     -5.62390246	    -20.71473134	    -24.02359902	     -4.08392386	      5.14756001	     -5.66007435
      3.34000000	      0.55174414	      0.37217287	      0.90119593	     35.18921441	     -6.36981732	    -19.55828266	    -24.01508618	     -4.14320279	      4.88076604	     -5.63133269
      3.35000000	      0.56412644	      0.38334174	      0.89990323	     35.06708532	     -7.14980030	    -18.75822661	    -23.98404571	     -4.19962285	      4.68108821	     -5.62650514
      3.36000000	      0.53934447	      0.39480593	      0.89856244	     34.97816277	     -7.88883328	    -18.32634373	    -23.97949536	     -4.25887602	      4.38731238	     -5.55733843
      3.37000000	      0.44372257	      0.40616459	      0.89714296	     34.98175583	     -8.51425415	    -18.26741779	    -24.00299724	     -4.26341873	      4.03104374	     -5.43343464
      3.38000000	      0.36971600	      0.41784897	      0.89581879	     34.91025566	     -9.17747741	    -18.51995321	    -24.01984323	     -4.23173785	      3.57464662	     -5.30352286
      3.39000000	      0.16226019	      0.42980704	      0.89433966	     34.95244049	     -9.72783307	    -19.08408528	    -23.99031432	     -4.09820715	      2.96276579	     -4.99740308
      3.40000000	      0.04028430	      0.44184029	      0.89308187	     34.86737699	    -10.32881241	    -19.88762819	    -24.01184773	     -4.11663560	      2.23054296	     -4.79593686
      3.41000000	     -0.24678661	      0.45432337	      0.89149493	     34.87972716	    -10.75795376	    -20.90744477	    -24.05482352	     -3.93761097	      1.45546609	     -4.34672860
      3.42000000	     -0.63870433	      0.46637303	      0.89002116	     35.06000450	    -10.98377367	    -21.92184866	    -24.18366007	     -4.80664853	      0.54391409	     -3.86852799
      3.43000000	     -1.28214018	      0.47806524	      0.88896243	     35.81276015	    -10.85164989	    -22.92504938	    -24.35641906	     -6.32402838	     -0.56510397	     -3.17045759
      3.44000000	     -1.85204684	      0.48992556	      0.88793797	     36.81652258	    -10.77053641	    -24.77464061	    -24.56311115	     -5.44948854	     -1.73596917	     -2.51653048
      3.45000000	     -2.23912635	      0.50220185	      0.88719252	     37.81010923	    -10.92402820	    -27.03941986	    -24.70269700	     -4.80813749	     -3.08412091	     -2.00056039
      3.46000000	     -2.45494194	      0.51447447	      0.88660658	     38.49191702	    -11.21385487	    -29.10398235	    -24.90113643	     -4.73721422	     -4.45841879	     -1.69178535
      3.47000000	     -2.51342189	      0.52691234	      0.88632622	     38.72207631	    -11.65358794	    -30.69249871	    -25.08228312	     -4.92032745	     -6.03460022	     -1.54976138
      3.48000000	     -2.53604915	      0.53941313	      0.88618683	     38.69522971	    -12.06444079	    -31.88343111	    -25.36382292	     -5.26086014	     -7.66123617	     -1.46883277
      3.49000000	     -2.67002228	      0.55198991	      0.88613173	     38.66864951	    -12.22247926	    -32.95427891	    -25.81168149	     -4.97065209	     -9.52598616	     -1.25739295
      3.50000000	     -2.85252561	      0.56453636	      0.88636641	     38.64271303	    -12.18915550	    -34.03554143	    -26.43242872	     -4.09745245	    -11.47621678	     -1.01035555
      3.51000000	     -3.12609349	      0.57721622	      0.88669811	     38.64866851	    -11.90493392	    -35.06472933	    -27.26472334	     -3.16925588	    -13.59203732	     -0.63069156
      3.52000000	     -3.39104766	      0.58974372	      0.88730480	     38.53884043	    -11.48444832	    -35.90823111	    -28.21132768	     -2.14555112	    -15.70717855	     -0.29176703
      3.53000000	     -3.63665894	      0.60192241	      0.88812893	     38.32258519	    -10.91082873	    -36.58208462	    -29.31167281	     -1.19235142	    -17.98066418	     -0.00781657
      3.54000000	     -3.79009493	      0.61400753	      0.88920660	     37.91563811	    -10.31477270	    -37.09340460	    -30.53551179	     -0.26664942	    -20.19938022	      0.15986908
      3.55000000	     -3.90376569	      0.62585366	      0.89054768	     37.37685030	     -9.60421924	    -37.45285083	    -31.98072476	      0.70277308	    -22.20516220	      0.26580107
      3.56000000	     -4.01206532	      0.63731991	      0.89202612	     36.78753950	     -8.73268393	    -37.70251324	    -33.54953933	      1.59799665	    -24.20923543	      0.33522465
      3.57000000	     -4.10458574	      0.64857184	      0.89362337	     36.17014307	     -7.74892849	    -37.88661555	    -35.21043146	      2.42364412	    -25.87418989	      0.37444302
      3.58000000	     -4.25020256	      0.65957882	      0.89536181	     35.53271768	     -6.58196826	    -37.92013728	    -36.96542463	      3.13200984	    -26.42039443	      0.47895960
      3.59000000	     -4.39494002	      0.67040219	      0.89721806	     34.86811383	     -5.33325915	    -37.88301049	    -38.69848736	      3.86643467	    -25.79854778	      0.57889151
      3.60000000	     -4.53418357	      0.68090356	      0.89917866	     34.12899125	     -3.99814357	    -37.68509268	    -40.22749600	      4.52470321	    -24.77164075	      0.64245480
      3.61000000	     -4.64367646	      0.69132981	      0.90128228	     33.33296239	     -2.64671953	    -37.42158136	    -41.59273489	      5.13307131	    -23.64647547	      0.67190805
      3.62000000	     -4.76546860	      0.70149048	      0.90353638	     32.42879601	     -1.18802753	    -36.90498662	    -42.85209639	      5.59722058	    -22.52540294	      0.69340593
      3.63000000	     -4.87114891	      0.71157749	      0.90586068	     31.51693760	      0.31037781	    -36.39001662	    -43.99434443	      5.98986642	    -21.36402547	      0.70116182
